<mxfile host="Electron" modified="2024-07-04T15:59:44.193Z" agent="Mozilla/5.0 (Windows NT 10.0; Win64; x64) AppleWebKit/537.36 (KHTML, like Gecko) draw.io/24.5.3 Chrome/124.0.6367.207 Electron/30.0.6 Safari/537.36" etag="WGlwnl55gXHuiKVdHUtz" version="24.5.3" type="device">
  <diagram name="Страница — 1" id="KgpnrsMqIwY7Wp8qNeAr">
    <mxGraphModel dx="2182" dy="1274" grid="1" gridSize="10" guides="1" tooltips="1" connect="1" arrows="1" fold="1" page="1" pageScale="1" pageWidth="827" pageHeight="1169" math="0" shadow="0">
      <root>
        <mxCell id="0" />
        <mxCell id="1" parent="0" />
        <mxCell id="bsYe6ef5HtAeF7PSShsB-94" value="ИС «Метод северо-западного угла»&amp;nbsp;" style="shape=umlFrame;whiteSpace=wrap;html=1;pointerEvents=0;recursiveResize=0;container=1;collapsible=0;width=320;height=30;" parent="1" vertex="1">
          <mxGeometry x="100" y="40" width="480" height="210" as="geometry" />
        </mxCell>
        <mxCell id="bsYe6ef5HtAeF7PSShsB-709" style="rounded=0;orthogonalLoop=1;jettySize=auto;html=1;entryX=0;entryY=0.5;entryDx=0;entryDy=0;dashed=1;" parent="bsYe6ef5HtAeF7PSShsB-94" source="bsYe6ef5HtAeF7PSShsB-95" target="bsYe6ef5HtAeF7PSShsB-708" edge="1">
          <mxGeometry relative="1" as="geometry" />
        </mxCell>
        <mxCell id="bsYe6ef5HtAeF7PSShsB-95" value="Запустить программу, расчитывающую опорный план" style="ellipse;whiteSpace=wrap;html=1;" parent="bsYe6ef5HtAeF7PSShsB-94" vertex="1">
          <mxGeometry x="10" y="71.04" width="220" height="48.95" as="geometry" />
        </mxCell>
        <mxCell id="bsYe6ef5HtAeF7PSShsB-98" value="Создать file.csv с матрицей перевозок" style="ellipse;whiteSpace=wrap;html=1;" parent="bsYe6ef5HtAeF7PSShsB-94" vertex="1">
          <mxGeometry x="320" y="40" width="148" height="60" as="geometry" />
        </mxCell>
        <mxCell id="bsYe6ef5HtAeF7PSShsB-99" style="rounded=0;orthogonalLoop=1;jettySize=auto;html=1;dashed=1;exitX=1;exitY=0.5;exitDx=0;exitDy=0;entryX=0;entryY=0.5;entryDx=0;entryDy=0;" parent="bsYe6ef5HtAeF7PSShsB-94" source="bsYe6ef5HtAeF7PSShsB-95" target="bsYe6ef5HtAeF7PSShsB-98" edge="1">
          <mxGeometry relative="1" as="geometry">
            <mxPoint x="399" y="262.89" as="sourcePoint" />
          </mxGeometry>
        </mxCell>
        <mxCell id="bsYe6ef5HtAeF7PSShsB-100" value="include" style="edgeLabel;html=1;align=center;verticalAlign=middle;resizable=0;points=[];" parent="bsYe6ef5HtAeF7PSShsB-99" vertex="1" connectable="0">
          <mxGeometry x="-0.0391" y="-1" relative="1" as="geometry">
            <mxPoint as="offset" />
          </mxGeometry>
        </mxCell>
        <mxCell id="bsYe6ef5HtAeF7PSShsB-708" value="Получить опорный&lt;div&gt;план в файл result.csv&lt;/div&gt;" style="ellipse;whiteSpace=wrap;html=1;" parent="bsYe6ef5HtAeF7PSShsB-94" vertex="1">
          <mxGeometry x="320" y="130" width="148" height="60" as="geometry" />
        </mxCell>
        <mxCell id="bsYe6ef5HtAeF7PSShsB-710" value="include" style="edgeLabel;html=1;align=center;verticalAlign=middle;resizable=0;points=[];" parent="bsYe6ef5HtAeF7PSShsB-94" vertex="1" connectable="0">
          <mxGeometry x="249.99734848349016" y="139.99752272092485" as="geometry" />
        </mxCell>
        <mxCell id="bsYe6ef5HtAeF7PSShsB-197" value="&lt;span style=&quot;font-size: 14px;&quot;&gt;Диаграмма последовательности&lt;/span&gt;" style="shape=umlFrame;whiteSpace=wrap;html=1;pointerEvents=0;recursiveResize=0;container=1;collapsible=0;width=240;height=27;verticalAlign=middle;" parent="1" vertex="1">
          <mxGeometry x="429" y="693.09" width="340" height="406.91" as="geometry" />
        </mxCell>
        <mxCell id="bsYe6ef5HtAeF7PSShsB-742" value="" style="shape=umlLifeline;perimeter=lifelinePerimeter;whiteSpace=wrap;html=1;container=1;dropTarget=0;collapsible=0;recursiveResize=0;outlineConnect=0;portConstraint=eastwest;newEdgeStyle={&quot;curved&quot;:0,&quot;rounded&quot;:0};participant=umlActor;" parent="bsYe6ef5HtAeF7PSShsB-197" vertex="1">
          <mxGeometry x="20" y="46.91" width="20" height="333.09" as="geometry" />
        </mxCell>
        <mxCell id="bsYe6ef5HtAeF7PSShsB-749" value="" style="html=1;points=[[0,0,0,0,5],[0,1,0,0,-5],[1,0,0,0,5],[1,1,0,0,-5]];perimeter=orthogonalPerimeter;outlineConnect=0;targetShapes=umlLifeline;portConstraint=eastwest;newEdgeStyle={&quot;curved&quot;:0,&quot;rounded&quot;:0};" parent="bsYe6ef5HtAeF7PSShsB-742" vertex="1">
          <mxGeometry x="5" y="80" width="10" height="30" as="geometry" />
        </mxCell>
        <mxCell id="bsYe6ef5HtAeF7PSShsB-747" value="" style="html=1;points=[];perimeter=orthogonalPerimeter;outlineConnect=0;targetShapes=umlLifeline;portConstraint=eastwest;newEdgeStyle={&quot;edgeStyle&quot;:&quot;elbowEdgeStyle&quot;,&quot;elbow&quot;:&quot;vertical&quot;,&quot;curved&quot;:0,&quot;rounded&quot;:0};" parent="bsYe6ef5HtAeF7PSShsB-742" vertex="1">
          <mxGeometry x="5" y="120" width="10" height="190" as="geometry" />
        </mxCell>
        <mxCell id="bsYe6ef5HtAeF7PSShsB-750" value="Создание&lt;div&gt;файла&lt;/div&gt;" style="html=1;align=left;spacingLeft=2;endArrow=block;rounded=0;edgeStyle=orthogonalEdgeStyle;curved=0;rounded=0;" parent="bsYe6ef5HtAeF7PSShsB-742" source="bsYe6ef5HtAeF7PSShsB-742" target="bsYe6ef5HtAeF7PSShsB-749" edge="1">
          <mxGeometry relative="1" as="geometry">
            <mxPoint x="11" y="58" as="sourcePoint" />
            <Array as="points">
              <mxPoint x="41" y="63" />
              <mxPoint x="41" y="95" />
            </Array>
          </mxGeometry>
        </mxCell>
        <mxCell id="bsYe6ef5HtAeF7PSShsB-743" value=":Приложение" style="shape=umlLifeline;perimeter=lifelinePerimeter;whiteSpace=wrap;html=1;container=1;dropTarget=0;collapsible=0;recursiveResize=0;outlineConnect=0;portConstraint=eastwest;newEdgeStyle={&quot;curved&quot;:0,&quot;rounded&quot;:0};" parent="bsYe6ef5HtAeF7PSShsB-197" vertex="1">
          <mxGeometry x="150" y="46.91" width="100" height="333.09" as="geometry" />
        </mxCell>
        <mxCell id="bsYe6ef5HtAeF7PSShsB-754" value="" style="html=1;points=[[0,0,0,0,5],[0,1,0,0,-5],[1,0,0,0,5],[1,1,0,0,-5]];perimeter=orthogonalPerimeter;outlineConnect=0;targetShapes=umlLifeline;portConstraint=eastwest;newEdgeStyle={&quot;curved&quot;:0,&quot;rounded&quot;:0};" parent="bsYe6ef5HtAeF7PSShsB-743" vertex="1">
          <mxGeometry x="45" y="130.75" width="10" height="169.25" as="geometry" />
        </mxCell>
        <mxCell id="bsYe6ef5HtAeF7PSShsB-752" value="Сообщение о завершении" style="html=1;verticalAlign=bottom;endArrow=open;dashed=1;endSize=8;edgeStyle=elbowEdgeStyle;elbow=horizontal;curved=0;rounded=0;" parent="bsYe6ef5HtAeF7PSShsB-197" edge="1">
          <mxGeometry relative="1" as="geometry">
            <mxPoint x="35" y="346.90999999999997" as="targetPoint" />
            <Array as="points">
              <mxPoint x="120" y="346.65999999999997" />
            </Array>
            <mxPoint x="195" y="346.90999999999997" as="sourcePoint" />
          </mxGeometry>
        </mxCell>
        <mxCell id="bsYe6ef5HtAeF7PSShsB-753" value="Запуск программы" style="html=1;verticalAlign=bottom;endArrow=block;edgeStyle=elbowEdgeStyle;elbow=vertical;curved=0;rounded=0;" parent="bsYe6ef5HtAeF7PSShsB-197" source="bsYe6ef5HtAeF7PSShsB-747" edge="1">
          <mxGeometry x="0.0029" relative="1" as="geometry">
            <mxPoint x="55" y="177.00000000000003" as="sourcePoint" />
            <Array as="points">
              <mxPoint x="190" y="177" />
              <mxPoint x="150" y="176.91" />
            </Array>
            <mxPoint x="195" y="176.91" as="targetPoint" />
            <mxPoint as="offset" />
          </mxGeometry>
        </mxCell>
        <mxCell id="bsYe6ef5HtAeF7PSShsB-764" value="&lt;span style=&quot;text-align: center;&quot;&gt;Чтение файла&lt;/span&gt;" style="html=1;align=left;spacingLeft=2;endArrow=block;rounded=0;edgeStyle=orthogonalEdgeStyle;curved=0;rounded=0;" parent="bsYe6ef5HtAeF7PSShsB-197" target="bsYe6ef5HtAeF7PSShsB-754" edge="1">
          <mxGeometry relative="1" as="geometry">
            <mxPoint x="205" y="192.91" as="sourcePoint" />
            <Array as="points">
              <mxPoint x="235" y="193" />
              <mxPoint x="235" y="223" />
            </Array>
            <mxPoint x="210" y="222.91" as="targetPoint" />
          </mxGeometry>
        </mxCell>
        <mxCell id="bsYe6ef5HtAeF7PSShsB-767" value="Запись опорного&lt;div&gt;плана в файл&lt;/div&gt;" style="html=1;align=left;spacingLeft=2;endArrow=block;rounded=0;edgeStyle=orthogonalEdgeStyle;curved=0;rounded=0;" parent="bsYe6ef5HtAeF7PSShsB-197" target="bsYe6ef5HtAeF7PSShsB-754" edge="1">
          <mxGeometry relative="1" as="geometry">
            <mxPoint x="205" y="295.91" as="sourcePoint" />
            <Array as="points">
              <mxPoint x="235" y="296" />
              <mxPoint x="235" y="326" />
            </Array>
            <mxPoint x="210" y="325.91" as="targetPoint" />
          </mxGeometry>
        </mxCell>
        <mxCell id="bsYe6ef5HtAeF7PSShsB-768" value="Решение&lt;div&gt;транспортной&lt;/div&gt;&lt;div&gt;задачи&lt;/div&gt;" style="html=1;align=left;spacingLeft=2;endArrow=block;rounded=0;edgeStyle=orthogonalEdgeStyle;curved=0;rounded=0;" parent="bsYe6ef5HtAeF7PSShsB-197" target="bsYe6ef5HtAeF7PSShsB-754" edge="1">
          <mxGeometry relative="1" as="geometry">
            <mxPoint x="205" y="246.91000000000008" as="sourcePoint" />
            <Array as="points">
              <mxPoint x="235" y="247" />
              <mxPoint x="235" y="277" />
            </Array>
            <mxPoint x="210" y="276.90999999999997" as="targetPoint" />
          </mxGeometry>
        </mxCell>
        <mxCell id="bsYe6ef5HtAeF7PSShsB-208" value="&lt;div&gt;&lt;span style=&quot;background-color: initial;&quot;&gt;«&lt;/span&gt;&lt;span style=&quot;text-align: left;&quot;&gt;device&lt;/span&gt;&lt;span style=&quot;background-color: initial;&quot;&gt;»&lt;/span&gt;&lt;span style=&quot;background-color: initial;&quot;&gt;&lt;br&gt;&lt;/span&gt;&lt;/div&gt;&lt;div&gt;&lt;b&gt;&lt;span style=&quot;background-color: initial;&quot;&gt;ПК&lt;/span&gt;&lt;/b&gt;&lt;/div&gt;" style="verticalAlign=top;align=center;shape=cube;size=10;direction=south;fontStyle=0;html=1;boundedLbl=1;spacingLeft=5;whiteSpace=wrap;" parent="1" vertex="1">
          <mxGeometry x="59" y="360.75000000000006" width="310" height="250" as="geometry" />
        </mxCell>
        <mxCell id="bsYe6ef5HtAeF7PSShsB-209" value="&lt;div&gt;&lt;span style=&quot;background-color: initial;&quot;&gt;«&lt;/span&gt;&lt;span style=&quot;text-align: left;&quot;&gt;execution environment&lt;/span&gt;&lt;span style=&quot;background-color: initial;&quot;&gt;»&lt;/span&gt;&lt;span style=&quot;background-color: initial;&quot;&gt;&lt;br&gt;&lt;/span&gt;&lt;/div&gt;&lt;div&gt;&lt;b&gt;Windows 11&lt;/b&gt;&lt;br&gt;&lt;/div&gt;" style="verticalAlign=top;align=center;shape=cube;size=10;direction=south;fontStyle=0;html=1;boundedLbl=1;spacingLeft=5;whiteSpace=wrap;" parent="1" vertex="1">
          <mxGeometry x="69" y="410.75000000000006" width="280" height="190" as="geometry" />
        </mxCell>
        <mxCell id="bsYe6ef5HtAeF7PSShsB-218" style="edgeStyle=orthogonalEdgeStyle;rounded=0;orthogonalLoop=1;jettySize=auto;html=1;exitX=1;exitY=0.25;exitDx=0;exitDy=0;entryX=0;entryY=0.75;entryDx=0;entryDy=0;endArrow=none;endFill=0;" parent="1" source="bsYe6ef5HtAeF7PSShsB-210" target="bsYe6ef5HtAeF7PSShsB-212" edge="1">
          <mxGeometry relative="1" as="geometry" />
        </mxCell>
        <mxCell id="bsYe6ef5HtAeF7PSShsB-219" style="edgeStyle=orthogonalEdgeStyle;rounded=0;orthogonalLoop=1;jettySize=auto;html=1;exitX=1;exitY=0.75;exitDx=0;exitDy=0;entryX=0;entryY=0.25;entryDx=0;entryDy=0;endArrow=none;endFill=0;" parent="1" source="bsYe6ef5HtAeF7PSShsB-210" target="bsYe6ef5HtAeF7PSShsB-216" edge="1">
          <mxGeometry relative="1" as="geometry" />
        </mxCell>
        <mxCell id="bsYe6ef5HtAeF7PSShsB-210" value="«artifact»&lt;br&gt;&lt;b&gt;Northwest.exe&lt;/b&gt;" style="html=1;dropTarget=0;whiteSpace=wrap;" parent="1" vertex="1">
          <mxGeometry x="79" y="493.75000000000006" width="110" height="72" as="geometry" />
        </mxCell>
        <mxCell id="bsYe6ef5HtAeF7PSShsB-211" value="" style="shape=module;jettyWidth=8;jettyHeight=4;" parent="bsYe6ef5HtAeF7PSShsB-210" vertex="1">
          <mxGeometry x="1" width="20" height="20" relative="1" as="geometry">
            <mxPoint x="-27" y="7" as="offset" />
          </mxGeometry>
        </mxCell>
        <mxCell id="bsYe6ef5HtAeF7PSShsB-212" value="«artifact»&lt;br&gt;&lt;b&gt;file.csv&lt;/b&gt;" style="html=1;dropTarget=0;whiteSpace=wrap;" parent="1" vertex="1">
          <mxGeometry x="216" y="466.75000000000006" width="110" height="58" as="geometry" />
        </mxCell>
        <mxCell id="bsYe6ef5HtAeF7PSShsB-213" value="" style="shape=module;jettyWidth=8;jettyHeight=4;" parent="bsYe6ef5HtAeF7PSShsB-212" vertex="1">
          <mxGeometry x="1" width="20" height="20" relative="1" as="geometry">
            <mxPoint x="-27" y="7" as="offset" />
          </mxGeometry>
        </mxCell>
        <mxCell id="bsYe6ef5HtAeF7PSShsB-216" value="«artifact»&lt;br&gt;&lt;b&gt;result.csv&lt;/b&gt;" style="html=1;dropTarget=0;whiteSpace=wrap;" parent="1" vertex="1">
          <mxGeometry x="217" y="534.75" width="110" height="58" as="geometry" />
        </mxCell>
        <mxCell id="bsYe6ef5HtAeF7PSShsB-217" value="" style="shape=module;jettyWidth=8;jettyHeight=4;" parent="bsYe6ef5HtAeF7PSShsB-216" vertex="1">
          <mxGeometry x="1" width="20" height="20" relative="1" as="geometry">
            <mxPoint x="-27" y="7" as="offset" />
          </mxGeometry>
        </mxCell>
        <mxCell id="bsYe6ef5HtAeF7PSShsB-220" value="&lt;span style=&quot;font-size: 14px;&quot;&gt;Диаграмма развертывания&lt;/span&gt;" style="shape=umlFrame;whiteSpace=wrap;html=1;pointerEvents=0;recursiveResize=0;container=1;collapsible=0;width=250;height=28;verticalAlign=middle;" parent="1" vertex="1">
          <mxGeometry x="39" y="317.00000000000006" width="350" height="311.25" as="geometry" />
        </mxCell>
        <mxCell id="bsYe6ef5HtAeF7PSShsB-247" value="&lt;span style=&quot;font-size: 14px;&quot;&gt;Диаграмма компонентов&lt;/span&gt;" style="shape=umlFrame;whiteSpace=wrap;html=1;pointerEvents=0;recursiveResize=0;container=1;collapsible=0;width=230;height=30;verticalAlign=middle;" parent="1" vertex="1">
          <mxGeometry x="429" y="316.99999999999994" width="370" height="290" as="geometry" />
        </mxCell>
        <mxCell id="bsYe6ef5HtAeF7PSShsB-243" value="file.csv" style="shape=note2;boundedLbl=1;whiteSpace=wrap;html=1;size=25;verticalAlign=top;align=center;" parent="bsYe6ef5HtAeF7PSShsB-247" vertex="1">
          <mxGeometry x="211" y="193.43" width="57" height="77" as="geometry" />
        </mxCell>
        <mxCell id="bsYe6ef5HtAeF7PSShsB-246" value="result.csv" style="shape=note2;boundedLbl=1;whiteSpace=wrap;html=1;size=25;verticalAlign=top;align=center;" parent="bsYe6ef5HtAeF7PSShsB-247" vertex="1">
          <mxGeometry x="294" y="193.43" width="57" height="77" as="geometry" />
        </mxCell>
        <mxCell id="bsYe6ef5HtAeF7PSShsB-268" value="class&amp;nbsp;&lt;span style=&quot;text-align: left;&quot;&gt;MetodNorthwest&lt;/span&gt;" style="html=1;align=center;verticalAlign=middle;dashed=0;whiteSpace=wrap;" parent="bsYe6ef5HtAeF7PSShsB-247" vertex="1">
          <mxGeometry x="201" y="130" width="150" height="30" as="geometry" />
        </mxCell>
        <mxCell id="bsYe6ef5HtAeF7PSShsB-424" style="edgeStyle=orthogonalEdgeStyle;rounded=0;orthogonalLoop=1;jettySize=auto;html=1;exitX=0.25;exitY=1;exitDx=0;exitDy=0;entryX=0.5;entryY=0;entryDx=0;entryDy=0;entryPerimeter=0;dashed=1;endArrow=open;endFill=0;" parent="bsYe6ef5HtAeF7PSShsB-247" source="bsYe6ef5HtAeF7PSShsB-268" target="bsYe6ef5HtAeF7PSShsB-243" edge="1">
          <mxGeometry relative="1" as="geometry" />
        </mxCell>
        <mxCell id="bsYe6ef5HtAeF7PSShsB-425" style="edgeStyle=orthogonalEdgeStyle;rounded=0;orthogonalLoop=1;jettySize=auto;html=1;exitX=0.75;exitY=1;exitDx=0;exitDy=0;entryX=0;entryY=0;entryDx=16;entryDy=0;entryPerimeter=0;endArrow=open;endFill=0;dashed=1;" parent="bsYe6ef5HtAeF7PSShsB-247" source="bsYe6ef5HtAeF7PSShsB-268" target="bsYe6ef5HtAeF7PSShsB-246" edge="1">
          <mxGeometry relative="1" as="geometry" />
        </mxCell>
        <mxCell id="bsYe6ef5HtAeF7PSShsB-270" style="edgeStyle=orthogonalEdgeStyle;rounded=0;orthogonalLoop=1;jettySize=auto;html=1;entryX=0.5;entryY=0;entryDx=0;entryDy=0;endArrow=open;endFill=0;dashed=1;" parent="1" source="bsYe6ef5HtAeF7PSShsB-264" target="bsYe6ef5HtAeF7PSShsB-266" edge="1">
          <mxGeometry relative="1" as="geometry" />
        </mxCell>
        <mxCell id="bsYe6ef5HtAeF7PSShsB-264" value="&lt;span style=&quot;background-color: initial;&quot;&gt;&lt;font style=&quot;font-size: 12px;&quot;&gt;Northwest.exe&lt;/font&gt;&lt;/span&gt;" style="html=1;dropTarget=0;whiteSpace=wrap;labelBackgroundColor=none;fontColor=default;" parent="1" vertex="1">
          <mxGeometry x="442" y="366.99999999999994" width="150" height="40" as="geometry" />
        </mxCell>
        <mxCell id="bsYe6ef5HtAeF7PSShsB-265" value="" style="shape=module;jettyWidth=8;jettyHeight=4;labelBackgroundColor=none;fontColor=default;" parent="bsYe6ef5HtAeF7PSShsB-264" vertex="1">
          <mxGeometry x="1" width="20" height="20" relative="1" as="geometry">
            <mxPoint x="-27" y="7" as="offset" />
          </mxGeometry>
        </mxCell>
        <mxCell id="bsYe6ef5HtAeF7PSShsB-271" style="edgeStyle=orthogonalEdgeStyle;rounded=0;orthogonalLoop=1;jettySize=auto;html=1;entryX=0;entryY=0.5;entryDx=0;entryDy=0;endArrow=open;endFill=0;dashed=1;" parent="1" source="bsYe6ef5HtAeF7PSShsB-266" target="bsYe6ef5HtAeF7PSShsB-268" edge="1">
          <mxGeometry relative="1" as="geometry" />
        </mxCell>
        <mxCell id="bsYe6ef5HtAeF7PSShsB-266" value="class Program" style="html=1;align=center;verticalAlign=middle;dashed=0;whiteSpace=wrap;" parent="1" vertex="1">
          <mxGeometry x="442" y="446.99999999999994" width="150" height="30" as="geometry" />
        </mxCell>
        <mxCell id="bsYe6ef5HtAeF7PSShsB-389" value="Диаграмма деятельности" style="swimlane;html=1;childLayout=stackLayout;startSize=20;rounded=0;shadow=0;comic=0;labelBackgroundColor=none;strokeWidth=1;fontFamily=Verdana;fontSize=12;align=center;" parent="1" vertex="1">
          <mxGeometry x="1009" y="30" width="500" height="650" as="geometry" />
        </mxCell>
        <mxCell id="bsYe6ef5HtAeF7PSShsB-390" value="&lt;span style=&quot;text-wrap: wrap;&quot;&gt;Пользователь&lt;/span&gt;" style="swimlane;html=1;startSize=20;" parent="bsYe6ef5HtAeF7PSShsB-389" vertex="1">
          <mxGeometry y="20" width="170" height="630" as="geometry" />
        </mxCell>
        <mxCell id="bsYe6ef5HtAeF7PSShsB-391" value="Создание файла&lt;div&gt;с данными&lt;/div&gt;" style="rounded=1;whiteSpace=wrap;html=1;shadow=0;comic=0;labelBackgroundColor=none;strokeWidth=1;fontFamily=Verdana;fontSize=12;align=center;arcSize=50;" parent="bsYe6ef5HtAeF7PSShsB-390" vertex="1">
          <mxGeometry x="20" y="100" width="130" height="40" as="geometry" />
        </mxCell>
        <mxCell id="bsYe6ef5HtAeF7PSShsB-392" style="edgeStyle=orthogonalEdgeStyle;rounded=0;html=1;labelBackgroundColor=none;startArrow=none;startFill=0;startSize=5;endArrow=classicThin;endFill=1;endSize=5;jettySize=auto;orthogonalLoop=1;strokeWidth=1;fontFamily=Verdana;fontSize=12;exitX=0.5;exitY=1;exitDx=0;exitDy=0;" parent="bsYe6ef5HtAeF7PSShsB-390" source="bsYe6ef5HtAeF7PSShsB-393" target="bsYe6ef5HtAeF7PSShsB-391" edge="1">
          <mxGeometry relative="1" as="geometry">
            <mxPoint x="65" y="90" as="sourcePoint" />
          </mxGeometry>
        </mxCell>
        <mxCell id="bsYe6ef5HtAeF7PSShsB-393" value="" style="ellipse;fillColor=strokeColor;html=1;" parent="bsYe6ef5HtAeF7PSShsB-390" vertex="1">
          <mxGeometry x="70" y="40" width="30" height="30" as="geometry" />
        </mxCell>
        <mxCell id="bsYe6ef5HtAeF7PSShsB-394" value="Запуск программы" style="rounded=1;whiteSpace=wrap;html=1;shadow=0;comic=0;labelBackgroundColor=none;strokeWidth=1;fontFamily=Verdana;fontSize=12;align=center;arcSize=50;" parent="bsYe6ef5HtAeF7PSShsB-390" vertex="1">
          <mxGeometry x="20" y="170" width="130" height="40" as="geometry" />
        </mxCell>
        <mxCell id="bsYe6ef5HtAeF7PSShsB-395" style="edgeStyle=orthogonalEdgeStyle;rounded=0;html=1;labelBackgroundColor=none;startArrow=none;startFill=0;startSize=5;endArrow=classicThin;endFill=1;endSize=5;jettySize=auto;orthogonalLoop=1;strokeWidth=1;fontFamily=Verdana;fontSize=12;exitX=0.5;exitY=1;exitDx=0;exitDy=0;" parent="bsYe6ef5HtAeF7PSShsB-390" source="bsYe6ef5HtAeF7PSShsB-391" target="bsYe6ef5HtAeF7PSShsB-394" edge="1">
          <mxGeometry relative="1" as="geometry">
            <mxPoint x="85" y="154" as="sourcePoint" />
          </mxGeometry>
        </mxCell>
        <mxCell id="bsYe6ef5HtAeF7PSShsB-396" value="Программа" style="swimlane;html=1;startSize=20;" parent="bsYe6ef5HtAeF7PSShsB-389" vertex="1">
          <mxGeometry x="170" y="20" width="330" height="630" as="geometry" />
        </mxCell>
        <mxCell id="bsYe6ef5HtAeF7PSShsB-397" style="edgeStyle=orthogonalEdgeStyle;rounded=0;orthogonalLoop=1;jettySize=auto;html=1;" parent="bsYe6ef5HtAeF7PSShsB-396" source="bsYe6ef5HtAeF7PSShsB-398" target="bsYe6ef5HtAeF7PSShsB-400" edge="1">
          <mxGeometry relative="1" as="geometry" />
        </mxCell>
        <mxCell id="bsYe6ef5HtAeF7PSShsB-398" value="Прочитать файл" style="rounded=1;whiteSpace=wrap;html=1;shadow=0;comic=0;labelBackgroundColor=none;strokeWidth=1;fontFamily=Verdana;fontSize=12;align=center;arcSize=50;" parent="bsYe6ef5HtAeF7PSShsB-396" vertex="1">
          <mxGeometry x="39.5" y="170" width="130" height="40" as="geometry" />
        </mxCell>
        <mxCell id="bsYe6ef5HtAeF7PSShsB-400" value="Данные корректны" style="rhombus;whiteSpace=wrap;html=1;" parent="bsYe6ef5HtAeF7PSShsB-396" vertex="1">
          <mxGeometry x="39.5" y="230" width="130" height="60" as="geometry" />
        </mxCell>
        <mxCell id="bsYe6ef5HtAeF7PSShsB-401" value="" style="edgeStyle=orthogonalEdgeStyle;html=1;align=left;verticalAlign=top;endArrow=open;endSize=8;rounded=0;entryX=0.5;entryY=0;entryDx=0;entryDy=0;" parent="bsYe6ef5HtAeF7PSShsB-396" source="bsYe6ef5HtAeF7PSShsB-400" target="bsYe6ef5HtAeF7PSShsB-409" edge="1">
          <mxGeometry x="-0.8947" y="5" relative="1" as="geometry">
            <mxPoint x="159.5" y="335" as="targetPoint" />
            <mxPoint as="offset" />
          </mxGeometry>
        </mxCell>
        <mxCell id="bsYe6ef5HtAeF7PSShsB-402" value="" style="ellipse;html=1;shape=endState;fillColor=strokeColor;" parent="bsYe6ef5HtAeF7PSShsB-396" vertex="1">
          <mxGeometry x="89.5" y="570" width="30" height="30" as="geometry" />
        </mxCell>
        <mxCell id="bsYe6ef5HtAeF7PSShsB-403" style="edgeStyle=orthogonalEdgeStyle;rounded=0;orthogonalLoop=1;jettySize=auto;html=1;" parent="bsYe6ef5HtAeF7PSShsB-396" source="bsYe6ef5HtAeF7PSShsB-404" target="bsYe6ef5HtAeF7PSShsB-402" edge="1">
          <mxGeometry relative="1" as="geometry" />
        </mxCell>
        <mxCell id="bsYe6ef5HtAeF7PSShsB-404" value="Записать опорный план в файл" style="rounded=1;whiteSpace=wrap;html=1;shadow=0;comic=0;labelBackgroundColor=none;strokeWidth=1;fontFamily=Verdana;fontSize=12;align=center;arcSize=50;" parent="bsYe6ef5HtAeF7PSShsB-396" vertex="1">
          <mxGeometry x="39.5" y="500" width="130" height="40" as="geometry" />
        </mxCell>
        <mxCell id="bsYe6ef5HtAeF7PSShsB-410" style="edgeStyle=orthogonalEdgeStyle;rounded=0;orthogonalLoop=1;jettySize=auto;html=1;entryX=0.5;entryY=0;entryDx=0;entryDy=0;" parent="bsYe6ef5HtAeF7PSShsB-396" source="XNnWN08uc4OyH65rneSO-2" target="bsYe6ef5HtAeF7PSShsB-404" edge="1">
          <mxGeometry relative="1" as="geometry" />
        </mxCell>
        <mxCell id="bsYe6ef5HtAeF7PSShsB-409" value="Задача закрытая" style="rhombus;whiteSpace=wrap;html=1;" parent="bsYe6ef5HtAeF7PSShsB-396" vertex="1">
          <mxGeometry x="39.5" y="330" width="130" height="60" as="geometry" />
        </mxCell>
        <mxCell id="bsYe6ef5HtAeF7PSShsB-406" value="Прервать работу" style="rounded=1;whiteSpace=wrap;html=1;shadow=0;comic=0;labelBackgroundColor=none;strokeWidth=1;fontFamily=Verdana;fontSize=12;align=center;arcSize=50;" parent="bsYe6ef5HtAeF7PSShsB-396" vertex="1">
          <mxGeometry x="190" y="500" width="130" height="40" as="geometry" />
        </mxCell>
        <mxCell id="bsYe6ef5HtAeF7PSShsB-399" style="edgeStyle=orthogonalEdgeStyle;rounded=0;orthogonalLoop=1;jettySize=auto;html=1;entryX=0.5;entryY=0;entryDx=0;entryDy=0;" parent="bsYe6ef5HtAeF7PSShsB-396" source="bsYe6ef5HtAeF7PSShsB-400" target="bsYe6ef5HtAeF7PSShsB-406" edge="1">
          <mxGeometry relative="1" as="geometry" />
        </mxCell>
        <mxCell id="bsYe6ef5HtAeF7PSShsB-405" style="edgeStyle=orthogonalEdgeStyle;rounded=0;orthogonalLoop=1;jettySize=auto;html=1;" parent="bsYe6ef5HtAeF7PSShsB-396" source="bsYe6ef5HtAeF7PSShsB-406" edge="1">
          <mxGeometry relative="1" as="geometry">
            <mxPoint x="120" y="585" as="targetPoint" />
            <Array as="points">
              <mxPoint x="250" y="585" />
            </Array>
          </mxGeometry>
        </mxCell>
        <mxCell id="bsYe6ef5HtAeF7PSShsB-413" style="edgeStyle=orthogonalEdgeStyle;rounded=0;orthogonalLoop=1;jettySize=auto;html=1;entryX=0.342;entryY=-0.049;entryDx=0;entryDy=0;entryPerimeter=0;" parent="bsYe6ef5HtAeF7PSShsB-396" source="bsYe6ef5HtAeF7PSShsB-409" target="bsYe6ef5HtAeF7PSShsB-406" edge="1">
          <mxGeometry relative="1" as="geometry" />
        </mxCell>
        <mxCell id="bsYe6ef5HtAeF7PSShsB-416" value="&lt;div style=&quot;text-align: center;&quot;&gt;&lt;span style=&quot;background-color: initial;&quot;&gt;да&lt;/span&gt;&lt;/div&gt;" style="text;whiteSpace=wrap;html=1;" parent="bsYe6ef5HtAeF7PSShsB-396" vertex="1">
          <mxGeometry x="110" y="290" width="29" height="20" as="geometry" />
        </mxCell>
        <mxCell id="bsYe6ef5HtAeF7PSShsB-417" value="&lt;div style=&quot;text-align: center;&quot;&gt;&lt;span style=&quot;background-color: initial;&quot;&gt;да&lt;/span&gt;&lt;/div&gt;" style="text;whiteSpace=wrap;html=1;" parent="bsYe6ef5HtAeF7PSShsB-396" vertex="1">
          <mxGeometry x="110" y="390" width="29" height="20" as="geometry" />
        </mxCell>
        <mxCell id="XNnWN08uc4OyH65rneSO-2" value="Решить задачу" style="rounded=1;whiteSpace=wrap;html=1;shadow=0;comic=0;labelBackgroundColor=none;strokeWidth=1;fontFamily=Verdana;fontSize=12;align=center;arcSize=50;" parent="bsYe6ef5HtAeF7PSShsB-396" vertex="1">
          <mxGeometry x="39.5" y="430" width="130" height="40" as="geometry" />
        </mxCell>
        <mxCell id="XNnWN08uc4OyH65rneSO-3" value="" style="edgeStyle=orthogonalEdgeStyle;rounded=0;orthogonalLoop=1;jettySize=auto;html=1;entryX=0.5;entryY=0;entryDx=0;entryDy=0;" parent="bsYe6ef5HtAeF7PSShsB-396" source="bsYe6ef5HtAeF7PSShsB-409" target="XNnWN08uc4OyH65rneSO-2" edge="1">
          <mxGeometry relative="1" as="geometry">
            <mxPoint x="1255" y="440" as="sourcePoint" />
            <mxPoint x="1255" y="550" as="targetPoint" />
          </mxGeometry>
        </mxCell>
        <mxCell id="bsYe6ef5HtAeF7PSShsB-415" value="&lt;div style=&quot;text-align: center;&quot;&gt;&lt;span style=&quot;background-color: initial;&quot;&gt;нет&lt;/span&gt;&lt;/div&gt;" style="text;whiteSpace=wrap;html=1;" parent="bsYe6ef5HtAeF7PSShsB-396" vertex="1">
          <mxGeometry x="169.5" y="230" width="29" height="20" as="geometry" />
        </mxCell>
        <mxCell id="bsYe6ef5HtAeF7PSShsB-414" value="&lt;div style=&quot;text-align: center;&quot;&gt;&lt;span style=&quot;background-color: initial;&quot;&gt;нет&lt;/span&gt;&lt;/div&gt;" style="text;whiteSpace=wrap;html=1;" parent="bsYe6ef5HtAeF7PSShsB-396" vertex="1">
          <mxGeometry x="161" y="330" width="29" height="20" as="geometry" />
        </mxCell>
        <mxCell id="bsYe6ef5HtAeF7PSShsB-408" style="edgeStyle=orthogonalEdgeStyle;rounded=0;orthogonalLoop=1;jettySize=auto;html=1;entryX=0;entryY=0.5;entryDx=0;entryDy=0;" parent="bsYe6ef5HtAeF7PSShsB-389" source="bsYe6ef5HtAeF7PSShsB-394" target="bsYe6ef5HtAeF7PSShsB-398" edge="1">
          <mxGeometry relative="1" as="geometry" />
        </mxCell>
        <mxCell id="bsYe6ef5HtAeF7PSShsB-502" value="1" style="shape=table;startSize=30;container=1;collapsible=0;childLayout=tableLayout;rounded=1;fillColor=none;" parent="1" vertex="1">
          <mxGeometry x="1160" y="890" width="150" height="90" as="geometry" />
        </mxCell>
        <mxCell id="bsYe6ef5HtAeF7PSShsB-503" value="" style="shape=tableRow;horizontal=0;startSize=0;swimlaneHead=0;swimlaneBody=0;strokeColor=inherit;top=0;left=0;bottom=0;right=0;collapsible=0;dropTarget=0;fillColor=none;points=[[0,0.5],[1,0.5]];portConstraint=eastwest;" parent="bsYe6ef5HtAeF7PSShsB-502" vertex="1">
          <mxGeometry y="30" width="150" height="60" as="geometry" />
        </mxCell>
        <mxCell id="bsYe6ef5HtAeF7PSShsB-504" value="Решение задачи" style="shape=partialRectangle;html=1;whiteSpace=wrap;connectable=0;strokeColor=inherit;overflow=hidden;fillColor=none;top=0;left=0;bottom=0;right=0;pointerEvents=1;" parent="bsYe6ef5HtAeF7PSShsB-503" vertex="1">
          <mxGeometry width="150" height="60" as="geometry">
            <mxRectangle width="150" height="60" as="alternateBounds" />
          </mxGeometry>
        </mxCell>
        <mxCell id="bsYe6ef5HtAeF7PSShsB-662" style="edgeStyle=orthogonalEdgeStyle;rounded=0;orthogonalLoop=1;jettySize=auto;html=1;entryX=0.999;entryY=0.709;entryDx=0;entryDy=0;entryPerimeter=0;exitX=0.999;exitY=0.235;exitDx=0;exitDy=0;exitPerimeter=0;" parent="bsYe6ef5HtAeF7PSShsB-502" source="bsYe6ef5HtAeF7PSShsB-503" target="bsYe6ef5HtAeF7PSShsB-503" edge="1">
          <mxGeometry relative="1" as="geometry">
            <mxPoint x="179" y="70" as="targetPoint" />
            <mxPoint x="168.9999999999999" y="45" as="sourcePoint" />
            <Array as="points">
              <mxPoint x="170" y="44" />
              <mxPoint x="170" y="73" />
            </Array>
          </mxGeometry>
        </mxCell>
        <mxCell id="bsYe6ef5HtAeF7PSShsB-643" value="" style="shape=table;startSize=0;container=1;collapsible=0;childLayout=tableLayout;" parent="1" vertex="1">
          <mxGeometry x="1154" y="1030" width="160" height="40" as="geometry" />
        </mxCell>
        <mxCell id="bsYe6ef5HtAeF7PSShsB-644" value="" style="shape=tableRow;horizontal=0;startSize=0;swimlaneHead=0;swimlaneBody=0;strokeColor=inherit;top=0;left=0;bottom=0;right=0;collapsible=0;dropTarget=0;fillColor=none;points=[[0,0.5],[1,0.5]];portConstraint=eastwest;" parent="bsYe6ef5HtAeF7PSShsB-643" vertex="1">
          <mxGeometry width="160" height="40" as="geometry" />
        </mxCell>
        <mxCell id="bsYe6ef5HtAeF7PSShsB-645" value="" style="shape=partialRectangle;html=1;whiteSpace=wrap;connectable=0;strokeColor=inherit;overflow=hidden;fillColor=none;top=0;left=0;bottom=0;right=0;pointerEvents=1;" parent="bsYe6ef5HtAeF7PSShsB-644" vertex="1">
          <mxGeometry width="40" height="40" as="geometry">
            <mxRectangle width="40" height="40" as="alternateBounds" />
          </mxGeometry>
        </mxCell>
        <mxCell id="bsYe6ef5HtAeF7PSShsB-646" value="result.csv" style="shape=partialRectangle;html=1;whiteSpace=wrap;connectable=0;strokeColor=inherit;overflow=hidden;fillColor=none;top=0;left=0;bottom=0;right=0;pointerEvents=1;" parent="bsYe6ef5HtAeF7PSShsB-644" vertex="1">
          <mxGeometry x="40" width="120" height="40" as="geometry">
            <mxRectangle width="120" height="40" as="alternateBounds" />
          </mxGeometry>
        </mxCell>
        <mxCell id="bsYe6ef5HtAeF7PSShsB-648" style="edgeStyle=orthogonalEdgeStyle;rounded=0;orthogonalLoop=1;jettySize=auto;html=1;entryX=0;entryY=0.5;entryDx=0;entryDy=0;" parent="1" source="bsYe6ef5HtAeF7PSShsB-492" target="bsYe6ef5HtAeF7PSShsB-495" edge="1">
          <mxGeometry relative="1" as="geometry" />
        </mxCell>
        <mxCell id="bsYe6ef5HtAeF7PSShsB-654" style="edgeStyle=orthogonalEdgeStyle;rounded=0;orthogonalLoop=1;jettySize=auto;html=1;entryX=0.001;entryY=0.094;entryDx=0;entryDy=0;entryPerimeter=0;" parent="1" source="bsYe6ef5HtAeF7PSShsB-492" target="bsYe6ef5HtAeF7PSShsB-503" edge="1">
          <mxGeometry relative="1" as="geometry" />
        </mxCell>
        <mxCell id="bsYe6ef5HtAeF7PSShsB-492" value="Пользователь" style="rounded=0;whiteSpace=wrap;html=1;" parent="1" vertex="1">
          <mxGeometry x="900" y="790" width="140" height="50" as="geometry" />
        </mxCell>
        <mxCell id="bsYe6ef5HtAeF7PSShsB-656" style="edgeStyle=orthogonalEdgeStyle;rounded=0;orthogonalLoop=1;jettySize=auto;html=1;entryX=0.5;entryY=0;entryDx=0;entryDy=0;" parent="1" source="bsYe6ef5HtAeF7PSShsB-494" target="bsYe6ef5HtAeF7PSShsB-502" edge="1">
          <mxGeometry relative="1" as="geometry">
            <Array as="points">
              <mxPoint x="1235" y="840" />
              <mxPoint x="1235" y="840" />
            </Array>
          </mxGeometry>
        </mxCell>
        <mxCell id="bsYe6ef5HtAeF7PSShsB-494" value="" style="shape=table;startSize=0;container=1;collapsible=0;childLayout=tableLayout;" parent="1" vertex="1">
          <mxGeometry x="1154" y="795" width="160" height="40" as="geometry" />
        </mxCell>
        <mxCell id="bsYe6ef5HtAeF7PSShsB-495" value="" style="shape=tableRow;horizontal=0;startSize=0;swimlaneHead=0;swimlaneBody=0;strokeColor=inherit;top=0;left=0;bottom=0;right=0;collapsible=0;dropTarget=0;fillColor=none;points=[[0,0.5],[1,0.5]];portConstraint=eastwest;" parent="bsYe6ef5HtAeF7PSShsB-494" vertex="1">
          <mxGeometry width="160" height="40" as="geometry" />
        </mxCell>
        <mxCell id="bsYe6ef5HtAeF7PSShsB-496" value="" style="shape=partialRectangle;html=1;whiteSpace=wrap;connectable=0;strokeColor=inherit;overflow=hidden;fillColor=none;top=0;left=0;bottom=0;right=0;pointerEvents=1;" parent="bsYe6ef5HtAeF7PSShsB-495" vertex="1">
          <mxGeometry width="40" height="40" as="geometry">
            <mxRectangle width="40" height="40" as="alternateBounds" />
          </mxGeometry>
        </mxCell>
        <mxCell id="bsYe6ef5HtAeF7PSShsB-497" value="file.csv" style="shape=partialRectangle;html=1;whiteSpace=wrap;connectable=0;strokeColor=inherit;overflow=hidden;fillColor=none;top=0;left=0;bottom=0;right=0;pointerEvents=1;" parent="bsYe6ef5HtAeF7PSShsB-495" vertex="1">
          <mxGeometry x="40" width="120" height="40" as="geometry">
            <mxRectangle width="120" height="40" as="alternateBounds" />
          </mxGeometry>
        </mxCell>
        <mxCell id="bsYe6ef5HtAeF7PSShsB-647" value="&lt;span style=&quot;font-size: 14px;&quot;&gt;Диаграмма потоков данных&lt;/span&gt;" style="shape=umlFrame;whiteSpace=wrap;html=1;pointerEvents=0;recursiveResize=0;container=1;collapsible=0;width=221;height=30;verticalAlign=middle;" parent="1" vertex="1">
          <mxGeometry x="890" y="730" width="510" height="360" as="geometry" />
        </mxCell>
        <mxCell id="bsYe6ef5HtAeF7PSShsB-663" value="&lt;span style=&quot;text-align: center;&quot;&gt;Запуск программы&lt;/span&gt;" style="text;whiteSpace=wrap;html=1;labelBackgroundColor=none;" parent="bsYe6ef5HtAeF7PSShsB-647" vertex="1">
          <mxGeometry x="95.5" y="166.5" width="109" height="27" as="geometry" />
        </mxCell>
        <mxCell id="uqUQpLMFvw49Jw119hHE-6" value="&lt;div style=&quot;text-align: center;&quot;&gt;&lt;span style=&quot;background-color: initial;&quot;&gt;Сообщение о записи в файл&lt;/span&gt;&lt;/div&gt;" style="text;whiteSpace=wrap;html=1;labelBackgroundColor=none;" parent="bsYe6ef5HtAeF7PSShsB-647" vertex="1">
          <mxGeometry x="60" y="230" width="180" height="27" as="geometry" />
        </mxCell>
        <mxCell id="uqUQpLMFvw49Jw119hHE-7" value="&lt;div style=&quot;text-align: center;&quot;&gt;Расчет опорного плана&lt;/div&gt;" style="text;whiteSpace=wrap;html=1;labelBackgroundColor=none;" parent="bsYe6ef5HtAeF7PSShsB-647" vertex="1">
          <mxGeometry x="440" y="190" width="70" height="67" as="geometry" />
        </mxCell>
        <mxCell id="bsYe6ef5HtAeF7PSShsB-653" value="&lt;span style=&quot;color: rgb(0, 0, 0); font-family: Helvetica; font-size: 12px; font-style: normal; font-variant-ligatures: normal; font-variant-caps: normal; font-weight: 400; letter-spacing: normal; orphans: 2; text-align: center; text-indent: 0px; text-transform: none; widows: 2; word-spacing: 0px; -webkit-text-stroke-width: 0px; white-space: normal; text-decoration-thickness: initial; text-decoration-style: initial; text-decoration-color: initial; float: none; display: inline !important;&quot;&gt;Запись данных в файл&lt;/span&gt;" style="text;whiteSpace=wrap;html=1;labelBackgroundColor=none;" parent="1" vertex="1">
          <mxGeometry x="1047" y="770" width="90" height="40" as="geometry" />
        </mxCell>
        <mxCell id="bsYe6ef5HtAeF7PSShsB-655" style="edgeStyle=orthogonalEdgeStyle;rounded=0;orthogonalLoop=1;jettySize=auto;html=1;exitX=0.25;exitY=0;exitDx=0;exitDy=0;entryX=0.273;entryY=0.981;entryDx=0;entryDy=0;entryPerimeter=0;" parent="1" source="bsYe6ef5HtAeF7PSShsB-502" target="bsYe6ef5HtAeF7PSShsB-495" edge="1">
          <mxGeometry relative="1" as="geometry" />
        </mxCell>
        <mxCell id="bsYe6ef5HtAeF7PSShsB-657" value="&lt;span style=&quot;color: rgb(0, 0, 0); font-family: Helvetica; font-size: 12px; font-style: normal; font-variant-ligatures: normal; font-variant-caps: normal; font-weight: 400; letter-spacing: normal; orphans: 2; text-align: center; text-indent: 0px; text-transform: none; widows: 2; word-spacing: 0px; -webkit-text-stroke-width: 0px; white-space: normal; text-decoration-thickness: initial; text-decoration-style: initial; text-decoration-color: initial; float: none; display: inline !important;&quot;&gt;Чтение файла&lt;/span&gt;" style="text;whiteSpace=wrap;html=1;labelBackgroundColor=none;" parent="1" vertex="1">
          <mxGeometry x="1250" y="840" width="60" height="40" as="geometry" />
        </mxCell>
        <mxCell id="bsYe6ef5HtAeF7PSShsB-658" value="&lt;span style=&quot;color: rgb(0, 0, 0); font-family: Helvetica; font-size: 12px; font-style: normal; font-variant-ligatures: normal; font-variant-caps: normal; font-weight: 400; letter-spacing: normal; orphans: 2; text-align: center; text-indent: 0px; text-transform: none; widows: 2; word-spacing: 0px; -webkit-text-stroke-width: 0px; white-space: normal; text-decoration-thickness: initial; text-decoration-style: initial; text-decoration-color: initial; float: none; display: inline !important;&quot;&gt;Запись опорного плана в файл&lt;/span&gt;" style="text;whiteSpace=wrap;html=1;labelBackgroundColor=none;" parent="1" vertex="1">
          <mxGeometry x="1204" y="980" width="110" height="40" as="geometry" />
        </mxCell>
        <mxCell id="bsYe6ef5HtAeF7PSShsB-659" value="&lt;span style=&quot;color: rgb(0, 0, 0); font-family: Helvetica; font-size: 12px; font-style: normal; font-variant-ligatures: normal; font-variant-caps: normal; font-weight: 400; letter-spacing: normal; orphans: 2; text-align: center; text-indent: 0px; text-transform: none; widows: 2; word-spacing: 0px; -webkit-text-stroke-width: 0px; white-space: normal; text-decoration-thickness: initial; text-decoration-style: initial; text-decoration-color: initial; float: none; display: inline !important;&quot;&gt;Открытие&lt;/span&gt;&lt;div&gt;&lt;span style=&quot;color: rgb(0, 0, 0); font-family: Helvetica; font-size: 12px; font-style: normal; font-variant-ligatures: normal; font-variant-caps: normal; font-weight: 400; letter-spacing: normal; orphans: 2; text-align: center; text-indent: 0px; text-transform: none; widows: 2; word-spacing: 0px; -webkit-text-stroke-width: 0px; white-space: normal; text-decoration-thickness: initial; text-decoration-style: initial; text-decoration-color: initial; float: none; display: inline !important;&quot;&gt;файла&amp;nbsp;&lt;/span&gt;&lt;/div&gt;" style="text;whiteSpace=wrap;html=1;labelBackgroundColor=none;" parent="1" vertex="1">
          <mxGeometry x="1131" y="840" width="60" height="40" as="geometry" />
        </mxCell>
        <mxCell id="bsYe6ef5HtAeF7PSShsB-660" style="edgeStyle=orthogonalEdgeStyle;rounded=0;orthogonalLoop=1;jettySize=auto;html=1;entryX=0.248;entryY=0.024;entryDx=0;entryDy=0;entryPerimeter=0;exitX=0.228;exitY=1.02;exitDx=0;exitDy=0;exitPerimeter=0;" parent="1" source="bsYe6ef5HtAeF7PSShsB-503" target="bsYe6ef5HtAeF7PSShsB-644" edge="1">
          <mxGeometry relative="1" as="geometry">
            <mxPoint x="1229" y="980" as="sourcePoint" />
            <mxPoint x="1230" y="1035" as="targetPoint" />
            <Array as="points">
              <mxPoint x="1194" y="1005" />
              <mxPoint x="1194" y="1005" />
            </Array>
          </mxGeometry>
        </mxCell>
        <mxCell id="bsYe6ef5HtAeF7PSShsB-680" value="Program" style="swimlane;fontStyle=1;align=center;verticalAlign=top;childLayout=stackLayout;horizontal=1;startSize=26;horizontalStack=0;resizeParent=1;resizeLast=0;collapsible=1;marginBottom=0;rounded=0;shadow=0;strokeWidth=1;" parent="1" vertex="1">
          <mxGeometry x="89.5" y="729.9999999999999" width="240" height="70" as="geometry">
            <mxRectangle x="340" y="380" width="170" height="26" as="alternateBounds" />
          </mxGeometry>
        </mxCell>
        <mxCell id="bsYe6ef5HtAeF7PSShsB-682" value="" style="line;html=1;strokeWidth=1;align=left;verticalAlign=middle;spacingTop=-1;spacingLeft=3;spacingRight=3;rotatable=0;labelPosition=right;points=[];portConstraint=eastwest;" parent="bsYe6ef5HtAeF7PSShsB-680" vertex="1">
          <mxGeometry y="26" width="240" height="14" as="geometry" />
        </mxCell>
        <mxCell id="bsYe6ef5HtAeF7PSShsB-681" value="+ Main(): void" style="text;align=left;verticalAlign=top;spacingLeft=4;spacingRight=4;overflow=hidden;rotatable=0;points=[[0,0.5],[1,0.5]];portConstraint=eastwest;" parent="bsYe6ef5HtAeF7PSShsB-680" vertex="1">
          <mxGeometry y="40" width="240" height="26" as="geometry" />
        </mxCell>
        <mxCell id="bsYe6ef5HtAeF7PSShsB-684" value="MetodNorthwest" style="swimlane;fontStyle=1;align=center;verticalAlign=top;childLayout=stackLayout;horizontal=1;startSize=26;horizontalStack=0;resizeParent=1;resizeLast=0;collapsible=1;marginBottom=0;rounded=0;shadow=0;strokeWidth=1;" parent="1" vertex="1">
          <mxGeometry x="69.5" y="836.9999999999999" width="280" height="242" as="geometry">
            <mxRectangle x="550" y="140" width="160" height="26" as="alternateBounds" />
          </mxGeometry>
        </mxCell>
        <mxCell id="bsYe6ef5HtAeF7PSShsB-685" value="+ tariffs: List&lt;List&lt;int&gt;&gt;" style="text;align=left;verticalAlign=top;spacingLeft=4;spacingRight=4;overflow=hidden;rotatable=0;points=[[0,0.5],[1,0.5]];portConstraint=eastwest;" parent="bsYe6ef5HtAeF7PSShsB-684" vertex="1">
          <mxGeometry y="26" width="280" height="26" as="geometry" />
        </mxCell>
        <mxCell id="bsYe6ef5HtAeF7PSShsB-690" value="" style="line;html=1;strokeWidth=1;align=left;verticalAlign=middle;spacingTop=-1;spacingLeft=3;spacingRight=3;rotatable=0;labelPosition=right;points=[];portConstraint=eastwest;" parent="bsYe6ef5HtAeF7PSShsB-684" vertex="1">
          <mxGeometry y="52" width="280" height="8" as="geometry" />
        </mxCell>
        <mxCell id="bsYe6ef5HtAeF7PSShsB-691" value="+ GetPlan(): void" style="text;align=left;verticalAlign=top;spacingLeft=4;spacingRight=4;overflow=hidden;rotatable=0;points=[[0,0.5],[1,0.5]];portConstraint=eastwest;" parent="bsYe6ef5HtAeF7PSShsB-684" vertex="1">
          <mxGeometry y="60" width="280" height="26" as="geometry" />
        </mxCell>
        <mxCell id="bsYe6ef5HtAeF7PSShsB-692" value="+ GetStartPlan(): List&lt;List&lt;int&gt;&gt;" style="text;align=left;verticalAlign=top;spacingLeft=4;spacingRight=4;overflow=hidden;rotatable=0;points=[[0,0.5],[1,0.5]];portConstraint=eastwest;" parent="bsYe6ef5HtAeF7PSShsB-684" vertex="1">
          <mxGeometry y="86" width="280" height="26" as="geometry" />
        </mxCell>
        <mxCell id="bsYe6ef5HtAeF7PSShsB-705" value="+ GetStartFreeCells(): List&lt;List&lt;bool&gt;&gt;" style="text;align=left;verticalAlign=top;spacingLeft=4;spacingRight=4;overflow=hidden;rotatable=0;points=[[0,0.5],[1,0.5]];portConstraint=eastwest;" parent="bsYe6ef5HtAeF7PSShsB-684" vertex="1">
          <mxGeometry y="112" width="280" height="26" as="geometry" />
        </mxCell>
        <mxCell id="beNMr-TsRqLUb3B2F2BU-1" value="+ IsFileExists(path: string ): bool" style="text;align=left;verticalAlign=top;spacingLeft=4;spacingRight=4;overflow=hidden;rotatable=0;points=[[0,0.5],[1,0.5]];portConstraint=eastwest;" parent="bsYe6ef5HtAeF7PSShsB-684" vertex="1">
          <mxGeometry y="138" width="280" height="26" as="geometry" />
        </mxCell>
        <mxCell id="bsYe6ef5HtAeF7PSShsB-699" value="+ IsClose(): bool" style="text;align=left;verticalAlign=top;spacingLeft=4;spacingRight=4;overflow=hidden;rotatable=0;points=[[0,0.5],[1,0.5]];portConstraint=eastwest;" parent="bsYe6ef5HtAeF7PSShsB-684" vertex="1">
          <mxGeometry y="164" width="280" height="26" as="geometry" />
        </mxCell>
        <mxCell id="bsYe6ef5HtAeF7PSShsB-700" value="+ ReadFile(): void" style="text;align=left;verticalAlign=top;spacingLeft=4;spacingRight=4;overflow=hidden;rotatable=0;points=[[0,0.5],[1,0.5]];portConstraint=eastwest;" parent="bsYe6ef5HtAeF7PSShsB-684" vertex="1">
          <mxGeometry y="190" width="280" height="26" as="geometry" />
        </mxCell>
        <mxCell id="bsYe6ef5HtAeF7PSShsB-703" value="+ WriteFile(plan: List&lt;List&lt;int&gt;&gt; plan, L: int): void" style="text;align=left;verticalAlign=top;spacingLeft=4;spacingRight=4;overflow=hidden;rotatable=0;points=[[0,0.5],[1,0.5]];portConstraint=eastwest;" parent="bsYe6ef5HtAeF7PSShsB-684" vertex="1">
          <mxGeometry y="216" width="280" height="26" as="geometry" />
        </mxCell>
        <mxCell id="bsYe6ef5HtAeF7PSShsB-697" style="edgeStyle=orthogonalEdgeStyle;rounded=0;orthogonalLoop=1;jettySize=auto;html=1;entryX=0.5;entryY=0;entryDx=0;entryDy=0;dashed=1;endArrow=open;endFill=0;" parent="1" source="bsYe6ef5HtAeF7PSShsB-680" target="bsYe6ef5HtAeF7PSShsB-684" edge="1">
          <mxGeometry relative="1" as="geometry" />
        </mxCell>
        <mxCell id="bsYe6ef5HtAeF7PSShsB-706" value="&lt;span style=&quot;font-size: 14px;&quot;&gt;Диаграмма класов&lt;/span&gt;" style="shape=umlFrame;whiteSpace=wrap;html=1;pointerEvents=0;recursiveResize=0;container=1;collapsible=0;width=221;height=30;verticalAlign=middle;" parent="1" vertex="1">
          <mxGeometry x="28.5" y="680" width="371" height="420" as="geometry" />
        </mxCell>
        <mxCell id="bsYe6ef5HtAeF7PSShsB-97" value="Пользователь" style="shape=umlActor;verticalLabelPosition=bottom;verticalAlign=top;html=1;outlineConnect=0;" parent="1" vertex="1">
          <mxGeometry x="30" y="105.52000000000001" width="30" height="60" as="geometry" />
        </mxCell>
        <mxCell id="bsYe6ef5HtAeF7PSShsB-96" style="rounded=0;orthogonalLoop=1;jettySize=auto;html=1;exitX=0.5;exitY=0.5;exitDx=0;exitDy=0;exitPerimeter=0;entryX=0;entryY=0.5;entryDx=0;entryDy=0;endArrow=none;endFill=0;" parent="1" source="bsYe6ef5HtAeF7PSShsB-97" target="bsYe6ef5HtAeF7PSShsB-95" edge="1">
          <mxGeometry relative="1" as="geometry" />
        </mxCell>
        <mxCell id="uqUQpLMFvw49Jw119hHE-5" style="edgeStyle=orthogonalEdgeStyle;rounded=0;orthogonalLoop=1;jettySize=auto;html=1;entryX=0.25;entryY=1;entryDx=0;entryDy=0;exitX=0;exitY=0.75;exitDx=0;exitDy=0;" parent="1" source="bsYe6ef5HtAeF7PSShsB-502" target="bsYe6ef5HtAeF7PSShsB-492" edge="1">
          <mxGeometry relative="1" as="geometry">
            <mxPoint x="980" y="850" as="sourcePoint" />
            <mxPoint x="1170" y="960" as="targetPoint" />
          </mxGeometry>
        </mxCell>
        <mxCell id="T6L1d908FeplJNe5zCqG-1" value="" style="group" vertex="1" connectable="0" parent="1">
          <mxGeometry x="1430" y="719.9999999999999" width="200" height="380.0000000000001" as="geometry" />
        </mxCell>
        <mxCell id="T6L1d908FeplJNe5zCqG-2" style="edgeStyle=orthogonalEdgeStyle;rounded=0;orthogonalLoop=1;jettySize=auto;html=1;exitX=0.5;exitY=1;exitDx=0;exitDy=0;entryX=0.5;entryY=0;entryDx=0;entryDy=0;" edge="1" parent="T6L1d908FeplJNe5zCqG-1" source="T6L1d908FeplJNe5zCqG-3" target="T6L1d908FeplJNe5zCqG-10">
          <mxGeometry relative="1" as="geometry" />
        </mxCell>
        <mxCell id="T6L1d908FeplJNe5zCqG-3" value="Расчет опорного плана" style="swimlane;fontStyle=0;align=center;verticalAlign=top;childLayout=stackLayout;horizontal=1;startSize=30;horizontalStack=0;resizeParent=1;resizeParentMax=0;resizeLast=0;collapsible=0;marginBottom=0;html=1;whiteSpace=wrap;rounded=1;" vertex="1" parent="T6L1d908FeplJNe5zCqG-1">
          <mxGeometry x="20" y="195" width="160" height="110" as="geometry" />
        </mxCell>
        <mxCell id="T6L1d908FeplJNe5zCqG-4" value="entry/ чтение файла&lt;div&gt;do/ решение задачи&lt;/div&gt;&lt;div&gt;exit/ запись ответа в файл&lt;/div&gt;" style="text;html=1;strokeColor=none;fillColor=none;align=left;verticalAlign=middle;spacingLeft=4;spacingRight=4;overflow=hidden;rotatable=0;points=[[0,0.5],[1,0.5]];portConstraint=eastwest;whiteSpace=wrap;" vertex="1" parent="T6L1d908FeplJNe5zCqG-3">
          <mxGeometry y="30" width="160" height="80" as="geometry" />
        </mxCell>
        <mxCell id="T6L1d908FeplJNe5zCqG-5" value="&lt;span style=&quot;font-size: 14px;&quot;&gt;Диаграмма состояния приложения&lt;/span&gt;" style="shape=umlFrame;whiteSpace=wrap;html=1;pointerEvents=0;recursiveResize=0;container=0;collapsible=0;width=180;height=40;verticalAlign=middle;" vertex="1" parent="T6L1d908FeplJNe5zCqG-1">
          <mxGeometry width="200" height="380" as="geometry" />
        </mxCell>
        <mxCell id="T6L1d908FeplJNe5zCqG-6" style="edgeStyle=orthogonalEdgeStyle;rounded=0;orthogonalLoop=1;jettySize=auto;html=1;entryX=0.5;entryY=0;entryDx=0;entryDy=0;" edge="1" parent="T6L1d908FeplJNe5zCqG-1" source="T6L1d908FeplJNe5zCqG-7">
          <mxGeometry relative="1" as="geometry">
            <mxPoint x="99.99999999999977" y="109.99999999999989" as="targetPoint" />
          </mxGeometry>
        </mxCell>
        <mxCell id="T6L1d908FeplJNe5zCqG-7" value="" style="ellipse;fillColor=strokeColor;html=1;container=0;" vertex="1" parent="T6L1d908FeplJNe5zCqG-1">
          <mxGeometry x="90" y="60" width="20" height="20" as="geometry" />
        </mxCell>
        <mxCell id="T6L1d908FeplJNe5zCqG-8" style="edgeStyle=orthogonalEdgeStyle;rounded=0;orthogonalLoop=1;jettySize=auto;html=1;entryX=0.5;entryY=0;entryDx=0;entryDy=0;" edge="1" parent="T6L1d908FeplJNe5zCqG-1" target="T6L1d908FeplJNe5zCqG-3">
          <mxGeometry relative="1" as="geometry">
            <mxPoint x="100" y="139.82000000000016" as="targetPoint" />
            <mxPoint x="99.99999999999977" y="139.9999999999999" as="sourcePoint" />
          </mxGeometry>
        </mxCell>
        <mxCell id="T6L1d908FeplJNe5zCqG-9" value="&lt;div style=&quot;text-align: center;&quot;&gt;&lt;span style=&quot;background-color: initial;&quot;&gt;Запуск приложения&lt;/span&gt;&lt;/div&gt;" style="text;whiteSpace=wrap;html=1;container=0;" vertex="1" parent="T6L1d908FeplJNe5zCqG-1">
          <mxGeometry x="100" y="140" width="92" height="43.09" as="geometry" />
        </mxCell>
        <mxCell id="T6L1d908FeplJNe5zCqG-10" value="" style="ellipse;html=1;shape=endState;fillColor=strokeColor;container=0;" vertex="1" parent="T6L1d908FeplJNe5zCqG-1">
          <mxGeometry x="90" y="340.0000000000001" width="20" height="20" as="geometry" />
        </mxCell>
        <mxCell id="T6L1d908FeplJNe5zCqG-11" value="Выключен" style="rounded=1;whiteSpace=wrap;html=1;fillColor=none;arcSize=34;" vertex="1" parent="T6L1d908FeplJNe5zCqG-1">
          <mxGeometry x="20" y="110.00000000000011" width="160" height="30" as="geometry" />
        </mxCell>
      </root>
    </mxGraphModel>
  </diagram>
</mxfile>
